<?xml version="1.0" encoding="UTF-8"?>
<svg width="23px" height="23px" viewBox="0 0 23 23" version="1.1" xmlns="http://www.w3.org/2000/svg" xmlns:xlink="http://www.w3.org/1999/xlink">
    <!-- Generator: sketchtool 64 (101010) - https://sketch.com -->
    <title>EA4B03B1-CFB8-4044-85BC-C2EA45F3E998</title>
    <desc>Created with sketchtool.</desc>
    <g id="DESIGN" stroke="none" stroke-width="1" fill="none" fill-rule="evenodd">
        <g id="03.6.0---Payment-Info" transform="translate(-37.000000, -194.000000)" fill="#FEFFFE" fill-rule="nonzero">
            <g id="Card" transform="translate(12.000000, 163.000000)">
                <g id="Bank" transform="translate(25.000000, 30.000000)">
                    <g id="1825814" transform="translate(0.000000, 1.000000)">
                        <path d="M22.0151993,19.5792174 C22.3822058,19.5792174 22.6796524,19.876664 22.6796524,20.2436705 L22.6796524,20.2436705 L22.6796524,22.0155453 C22.6796524,22.3825518 22.3822058,22.6799984 22.0151993,22.6799984 L22.0151993,22.6799984 L0.665145217,22.6799984 C0.298138723,22.6799984 0.000692138624,22.3825518 0.000692138624,22.0155453 L0.000692138624,22.0155453 L0.000692138624,20.2436705 C0.000692138624,19.876664 0.298138723,19.5792174 0.665145217,19.5792174 L0.665145217,19.5792174 Z M20.2180613,11.8867887 L20.2180613,18.2503112 L17.560422,18.2503112 L17.560422,11.8867887 L20.2180613,11.8867887 Z M15.1853484,11.8867887 L15.1853484,18.2503112 L12.5275361,18.2503112 L12.5275361,11.8867887 L15.1853484,11.8867887 Z M10.1524624,11.8867887 L10.1524624,18.2503112 L7.49465004,18.2503112 L7.49465004,11.8867887 L10.1524624,11.8867887 Z M5.11957637,11.8867887 L5.11957637,18.2503112 L2.46193708,18.2503112 L2.46193708,11.8867887 L5.11957637,11.8867887 Z M21.1041718,9.2289764 L21.1041718,9.89342948 C21.1041718,10.260436 20.8065522,10.5578826 20.4397187,10.5578826 L20.4397187,10.5578826 L2.24045272,10.5578826 C1.87344623,10.5578826 1.57599965,10.260436 1.57599965,9.89342948 L1.57599965,9.89342948 L1.57599965,9.2289764 L21.1041718,9.2289764 Z M10.9916805,0.0986297317 C11.2053783,-0.0328766068 11.4747932,-0.0328766068 11.688318,0.0986297317 L11.688318,0.0986297317 L22.3638641,6.66979382 C22.6170138,6.82552506 22.7357155,7.13058512 22.6549084,7.41661144 C22.5739282,7.70263772 22.3128189,7.90007025 22.0155453,7.90007025 L22.0155453,7.90007025 L0.664453078,7.90007025 C0.367352585,7.90007025 0.106243301,7.70263772 0.0252630376,7.41661144 C-0.055717137,7.13058512 0.0629846147,6.82569808 0.316134327,6.66979382 L0.316134327,6.66979382 Z M11.7917927,3.90816071 L10.8883788,3.90816071 C10.5213722,3.90816071 10.2239257,4.2056073 10.2239257,4.57261379 C10.2239257,4.93962033 10.5213722,5.23706687 10.8883788,5.23706687 L10.8883788,5.23706687 L11.7917927,5.23706687 C12.1587992,5.23706687 12.4562458,4.93962033 12.4562458,4.57261379 C12.4562458,4.2056073 12.1587992,3.90816071 11.7917927,3.90816071 L11.7917927,3.90816071 Z" id="Combined-Shape"></path>
                    </g>
                </g>
            </g>
        </g>
    </g>
</svg>