<?xml version="1.0" encoding="UTF-8"?>
<svg width="87px" height="88px" viewBox="0 0 87 88" version="1.1" xmlns="http://www.w3.org/2000/svg" xmlns:xlink="http://www.w3.org/1999/xlink">
    <!-- Generator: sketchtool 64 (101010) - https://sketch.com -->
    <title>678DCBA7-28FF-419D-911C-0D1CD0D70C8D</title>
    <desc>Created with sketchtool.</desc>
    <g id="DESIGN" stroke="none" stroke-width="1" fill="none" fill-rule="evenodd">
        <g id="03.6.2.2---Error" transform="translate(-145.000000, -291.000000)">
            <g id="Success-message" transform="translate(20.000000, 245.000000)">
                <g id="Group" transform="translate(125.000000, 46.000000)">
                    <ellipse id="Oval" fill="#F42B2B" cx="43.1999949" cy="43.5199948" rx="43.1999949" ry="43.5199948"></ellipse>
                    <path d="M56.6888434,59 C59.3234391,59 61,57.0933333 61,54.6916667 C61,53.9766667 60.8157625,53.2616667 60.4288639,52.5833333 L46.7215967,28.1816667 C45.9293756,26.7516667 44.4738997,26 43,26 C41.5445241,26 40.0706244,26.7333333 39.2784033,28.1816667 L25.5895599,52.6016667 C25.1842375,53.2616667 25,53.9766667 25,54.6916667 C25,57.0933333 26.6765609,59 29.3111566,59 L56.6888434,59 Z M43,47.065 C42.0603889,47.065 41.5261003,46.5333333 41.4892528,45.5616667 L41.2313204,37.2016667 C41.1944729,36.23 41.9498465,35.515 42.9815763,35.515 C44.013306,35.515 44.7871034,36.2483333 44.7502559,37.22 L44.4923234,45.5616667 C44.4554759,46.5516667 43.9211873,47.065 43,47.065 Z M43,53.5 C41.9498465,53.5 40.9918117,52.7116667 40.9918117,51.5933333 C40.9918117,50.4933333 41.9314227,49.6866667 43,49.6866667 C44.0685773,49.6866667 45.0081883,50.475 45.0081883,51.5933333 C45.0081883,52.7116667 44.0501535,53.5 43,53.5 Z" id="Error" fill="#FEFEFE" fill-rule="nonzero"></path>
                </g>
            </g>
        </g>
    </g>
</svg>