<?xml version="1.0" encoding="UTF-8"?>
<svg width="22px" height="14px" viewBox="0 0 22 14" version="1.1" xmlns="http://www.w3.org/2000/svg" xmlns:xlink="http://www.w3.org/1999/xlink">
    <!-- Generator: sketchtool 64 (101010) - https://sketch.com -->
    <title>70A3759C-DA60-4577-AD97-9AA223AD0DB0</title>
    <desc>Created with sketchtool.</desc>
    <g id="DESIGN" stroke="none" stroke-width="1" fill="none" fill-rule="evenodd">
        <g id="03.6.0.1---Manage-Cards" transform="translate(-329.000000, -308.000000)" fill="#CCCCCC">
            <g id="Details" transform="translate(0.000000, 280.000000)">
                <g id="Group-Copy-3">
                    <path d="M350,40 C350.552285,40 351,40.4477153 351,41 C351,41.5522847 350.552285,42 350,42 L330,42 C329.447715,42 329,41.5522847 329,41 C329,40.4477153 329.447715,40 330,40 L350,40 Z M350,34 C350.552285,34 351,34.4477153 351,35 C351,35.5522847 350.552285,36 350,36 L330,36 C329.447715,36 329,35.5522847 329,35 C329,34.4477153 329.447715,34 330,34 L350,34 Z M350,28 C350.552285,28 351,28.4477153 351,29 C351,29.5522847 350.552285,30 350,30 L330,30 C329.447715,30 329,29.5522847 329,29 C329,28.4477153 329.447715,28 330,28 L350,28 Z" id="Handle-Icon"></path>
                </g>
            </g>
        </g>
    </g>
</svg>