<?xml version="1.0" encoding="UTF-8"?>
<svg width="23px" height="24px" viewBox="0 0 23 24" version="1.1" xmlns="http://www.w3.org/2000/svg" xmlns:xlink="http://www.w3.org/1999/xlink">
    <!-- Generator: sketchtool 64 (101010) - https://sketch.com -->
    <title>FCD265D0-03F5-4196-84B0-148F1BEB937D</title>
    <desc>Created with sketchtool.</desc>
    <g id="DESIGN" stroke="none" stroke-width="1" fill="none" fill-rule="evenodd">
        <g id="03.6.0---Payment-Info" transform="translate(-323.000000, -66.000000)" fill="#234F8D" fill-rule="nonzero">
            <g id="Header">
                <g id="Manage-btn" transform="translate(311.000000, 54.000000)">
                    <path d="M34.6018478,26.6300156 L32.4308746,24.9050156 C32.4584149,24.639 32.4820339,24.3280312 32.4820339,23.9990156 C32.4820339,23.67 32.4593836,23.3590313 32.4308746,23.0930156 L34.6038314,21.3670313 C35.0073397,21.0430312 35.1175468,20.4680156 34.8606891,19.9890469 L32.6030818,16.02 C32.3619548,15.5720156 31.8334776,15.342 31.297158,15.543 L28.7354549,16.5879844 C28.2443899,16.2279844 27.7296597,15.924 27.1972612,15.681 L26.8075462,12.9200156 C26.7435624,12.396 26.2947996,12 25.7643848,12 L21.2374068,12 C20.7069459,12 20.259198,12.396 20.196183,12.912 L19.8054991,15.6830156 C19.2898002,15.9190312 18.7830045,16.2190313 18.2702579,16.59 L15.7016812,15.5420156 C15.220396,15.3530156 14.6446805,15.5649844 14.4055372,16.011 L12.1450237,19.9850156 C11.8783401,20.4430313 11.9885471,21.0380156 12.4009126,21.3700313 L14.5718858,23.0950313 C14.5374259,23.4320156 14.5207264,23.7250313 14.5207264,24.0000469 C14.5207264,24.2750625 14.537472,24.5680313 14.5718858,24.9060469 L12.3989289,26.6320312 C11.9954207,26.9570156 11.8861824,27.5320312 12.14304,28.0100156 L14.4006473,31.9790156 C14.6417743,32.4260156 15.1653155,32.658 15.7065711,32.4560156 L18.2682743,31.4110312 C18.7583705,31.7700469 19.2730546,32.0740312 19.8054991,32.3180156 L20.1952142,35.0780156 C20.2591518,35.604 20.7069459,36 21.2383756,36 L25.7653536,36 C26.2958145,36 26.7445773,35.604 26.8075462,35.088 L27.19823,32.3180156 C27.713929,32.0810156 28.2197559,31.782 28.7334712,31.41 L31.3020479,32.4579844 C31.4260482,32.5069687 31.5549844,32.532 31.6878418,32.532 C32.0696685,32.532 32.4210026,32.3199844 32.5981458,31.9899844 L34.865579,27.9999844 C35.1175468,27.5319844 35.0072936,26.9570156 34.6018478,26.6300156 Z M23.5008727,27.9999844 C21.3298996,27.9999844 19.5643721,26.2059844 19.5643721,24 C19.5643721,21.7940156 21.3298996,20.0000156 23.5008727,20.0000156 C25.6718459,20.0000156 27.4373733,21.7940156 27.4373733,24 C27.4373733,26.2059844 25.6718459,27.9999844 23.5008727,27.9999844 Z" id="Shape"></path>
                </g>
            </g>
        </g>
    </g>
</svg>