<?xml version="1.0" encoding="UTF-8"?>
<svg width="101px" height="77px" viewBox="0 0 101 77" version="1.1" xmlns="http://www.w3.org/2000/svg" xmlns:xlink="http://www.w3.org/1999/xlink">
    <!-- Generator: sketchtool 64 (101010) - https://sketch.com -->
    <title>631A7328-28C5-4A70-8AA7-28C46F26B60B</title>
    <desc>Created with sketchtool.</desc>
    <g id="DESIGN" stroke="none" stroke-width="1" fill="none" fill-rule="evenodd">
        <g id="03.6---Payment-Info---No-Cards" transform="translate(-137.000000, -323.000000)" fill="#C6C8CC" fill-rule="nonzero">
            <path d="M237.5,341.57348 L237.5,337.265199 C237.5,327.834849 232.617281,323 223.043322,323 L151.956678,323 C142.334849,323 137.5,327.786979 137.5,337.265199 L137.5,341.57348 L237.5,341.57348 Z M223.043322,399.68741 C232.617281,399.68741 237.5,394.900431 237.5,385.422212 L237.5,351.961225 L137.5,351.961225 L137.5,385.422212 C137.5,394.900431 142.334849,399.68741 151.956678,399.68741 L223.043322,399.68741 Z M168.280278,378.86405 L157.174485,378.86405 C154.493777,378.86405 152.722595,377.044998 152.722595,374.507899 L152.722595,366.130685 C152.722595,363.593585 154.493777,361.774533 157.174485,361.774533 L168.280278,361.774533 C170.913116,361.774533 172.732169,363.593585 172.732169,366.130685 L172.732169,374.507899 C172.732169,377.044998 170.913116,378.86405 168.280278,378.86405 Z" id="Card-Icon"></path>
        </g>
    </g>
</svg>