<?xml version="1.0" encoding="UTF-8"?>
<svg width="19px" height="19px" viewBox="0 0 19 19" version="1.1" xmlns="http://www.w3.org/2000/svg" xmlns:xlink="http://www.w3.org/1999/xlink">
    <!-- Generator: sketchtool 64 (101010) - https://sketch.com -->
    <title>DF64511D-7DA7-41F8-A9FE-0F442A606BCE</title>
    <desc>Created with sketchtool.</desc>
    <g id="DESIGN" stroke="none" stroke-width="1" fill="none" fill-rule="evenodd">
        <g id="03.6---Payment-Info---No-Cards" transform="translate(-131.000000, -731.000000)" fill="#FFFFFF" fill-rule="nonzero">
            <g id="btn-copy" transform="translate(82.000000, 712.000000)">
                <g id="Icon" transform="translate(49.000000, 19.000000)">
                    <path d="M9.05206154,18.16 C8.02765128,18.16 7.45025641,17.4017537 7.45025641,16.3402088 L7.45025641,10.8808351 L1.80668718,10.8808351 C0.745025641,10.8808351 0,10.2931942 0,9.26956159 C0,8.2080167 0.707774359,7.60141962 1.80668718,7.60141962 L7.45025641,7.60141962 L7.45025641,1.81979123 C7.45025641,0.739290188 8.02765128,0 9.05206154,0 C10.0578462,0 10.6911179,0.720334029 10.6911179,1.81979123 L10.6911179,7.60141962 L16.3533128,7.60141962 C17.4708513,7.60141962 18.16,8.2080167 18.16,9.26956159 C18.16,10.2931942 17.4336,10.8808351 16.3533128,10.8808351 L10.6911179,10.8808351 L10.6911179,16.3402088 C10.6911179,17.439666 10.0578462,18.16 9.05206154,18.16 Z" id="Path"></path>
                </g>
            </g>
        </g>
    </g>
</svg>