<?xml version="1.0" encoding="UTF-8"?>
<svg width="87px" height="88px" viewBox="0 0 87 88" version="1.1" xmlns="http://www.w3.org/2000/svg" xmlns:xlink="http://www.w3.org/1999/xlink">
    <!-- Generator: sketchtool 64 (101010) - https://sketch.com -->
    <title>D3032548-7817-4DD5-8FAE-6A3B15D01AF7</title>
    <desc>Created with sketchtool.</desc>
    <g id="DESIGN" stroke="none" stroke-width="1" fill="none" fill-rule="evenodd">
        <g id="03.6.2.1---Success" transform="translate(-145.000000, -291.000000)">
            <g id="Success-message" transform="translate(20.000000, 245.000000)">
                <g id="Group" transform="translate(125.000000, 46.000000)">
                    <ellipse id="Oval" fill="#2659A1" cx="43.1999949" cy="43.5199948" rx="43.1999949" ry="43.5199948"></ellipse>
                    <path d="M39.7930097,60.4774928 C41.2869433,60.4774928 42.4334505,59.9349929 43.21516,58.762493 L59.2488897,34.5599959 C59.804772,33.737496 60.0305992,32.8974961 60.0305992,32.1624962 C60.0305992,30.0624964 58.397695,28.4874966 56.2610224,28.4874966 C54.8018314,28.4874966 53.8811514,29.0124965 52.995214,30.4124964 L39.7408957,51.3074939 L33.1397936,43.5024948 C32.3580841,42.5924949 31.4721467,42.172495 30.2561542,42.172495 C28.1021103,42.172495 26.5213201,43.7474948 26.5213201,45.8649945 C26.5213201,46.8274944 26.7818899,47.5974943 27.598342,48.5424942 L36.5272012,58.989993 C37.4131386,60.0224928 38.4554179,60.4774928 39.7930097,60.4774928 Z" id="checkmark" fill="#FEFEFE" fill-rule="nonzero"></path>
                </g>
            </g>
        </g>
    </g>
</svg>