<svg xmlns="http://www.w3.org/2000/svg" width="26" height="26" viewBox="0 0 26 26">
  <defs>
    <style>
      .cls-1 {
        fill: #ffc074;
        fill-rule: evenodd;
      }
    </style>
  </defs>
  <path class="cls-1" d="M24.15,14.994a1.568,1.568,0,0,0,1.789-1.616,2.1,2.1,0,0,0-.635-1.4L14.792,0.973A2.444,2.444,0,0,0,13,.064a2.493,2.493,0,0,0-1.775.909L0.7,11.979a1.979,1.979,0,0,0-.635,1.4,1.57,1.57,0,0,0,1.774,1.616H24.15ZM23.37,25a2.31,2.31,0,0,0,2.611-2.51V20.505A2.317,2.317,0,0,0,23.37,18H2.616A2.317,2.317,0,0,0,0,20.505v1.983A2.317,2.317,0,0,0,2.616,25H23.37Z"></path>
</svg>
