<svg xmlns="http://www.w3.org/2000/svg" width="26" height="26" viewBox="0 0 26 26">
  <defs>
    <style>
      .cls-1 {
        fill: #ffc074;
        fill-rule: evenodd;
      }
    </style>
  </defs>
  <path id="Shape_1_copy" data-name="Shape 1 copy" class="cls-1" d="M24.15,9.991a1.568,1.568,0,0,1,1.789,1.616,2.1,2.1,0,0,1-.635,1.4L14.792,24.128A2.444,2.444,0,0,1,13,25.037a2.493,2.493,0,0,1-1.775-.909L0.7,13.006a1.979,1.979,0,0,1-.635-1.4A1.57,1.57,0,0,1,1.841,9.991H24.15Zm-0.78-10A2.31,2.31,0,0,1,25.981,2.5V4.48A2.317,2.317,0,0,1,23.37,6.99H2.616A2.317,2.317,0,0,1,0,4.48V2.5A2.317,2.317,0,0,1,2.616-.013H23.37Z"/>
</svg>
