<?xml version="1.0" encoding="UTF-8"?>
<svg width="30px" height="30px" viewBox="0 0 30 30" version="1.1" xmlns="http://www.w3.org/2000/svg" xmlns:xlink="http://www.w3.org/1999/xlink">
    <!-- Generator: sketchtool 64 (101010) - https://sketch.com -->
    <title>77B7302E-E2D3-42E6-B5BC-3E02CDA83973</title>
    <desc>Created with sketchtool.</desc>
    <g id="DESIGN" stroke="none" stroke-width="1" fill="none" fill-rule="evenodd">
        <g id="06---Notifications" transform="translate(-29.000000, -156.000000)">
            <g id="Rent-Complete">
                <g id="Rent-Complete-Icon" transform="translate(24.000000, 151.000000)">
                    <polygon id="Bounds" points="0 0 40 0 40 40 0 40"></polygon>
                    <path d="M20.2286007,34.4238281 C28.1241085,34.4238281 34.6426632,27.9052734 34.6426632,20.0097656 C34.6426632,12.0996094 28.1094601,5.58105469 20.2139523,5.58105469 C12.3184445,5.58105469 5.79988978,12.0996094 5.79988978,20.0097656 C5.79988978,27.9052734 12.3184445,34.4238281 20.2286007,34.4238281 Z M18.3389523,27.3046875 C17.7969601,27.3046875 17.357507,27.0556641 16.9473507,26.5722656 L12.9629757,21.7529297 C12.6846554,21.4306641 12.5528195,21.0791016 12.5528195,20.7128906 C12.5528195,19.9511719 13.1827023,19.3359375 13.9297726,19.3359375 C14.3838742,19.3359375 14.7500851,19.5263672 15.1016476,19.9511719 L18.295007,23.9501953 L24.4619992,14.1210938 C24.7989132,13.59375 25.2090695,13.3447266 25.6778195,13.3447266 C26.4102413,13.3447266 27.0987179,13.8574219 27.0987179,14.6337891 C27.0987179,14.9707031 26.9375851,15.3222656 26.732507,15.6591797 L19.701257,26.5429688 C19.3643429,27.0410156 18.8955929,27.3046875 18.3389523,27.3046875 Z" id="Shape" fill="#93E37A" fill-rule="nonzero"></path>
                </g>
            </g>
        </g>
    </g>
</svg>