<?xml version="1.0" standalone="no"?>
<!DOCTYPE svg PUBLIC "-//W3C//DTD SVG 20010904//EN"
 "http://www.w3.org/TR/2001/REC-SVG-20010904/DTD/svg10.dtd">
<svg version="1.0" xmlns="http://www.w3.org/2000/svg"
 width="80.000000pt" height="80.000000pt" viewBox="0 0 80.000000 80.000000"
 preserveAspectRatio="xMidYMid meet">
<metadata>
Created by potrace 1.15, written by Peter Selinger 2001-2017
</metadata>
<g transform="translate(0.000000,80.000000) scale(0.100000,-0.100000)"
fill="#000000" stroke="none">
<path d="M273 786 c-101 -33 -190 -113 -241 -216 -25 -50 -27 -65 -27 -170 0
-107 2 -119 29 -175 38 -77 114 -153 191 -191 56 -27 68 -29 175 -29 107 0
119 2 175 29 77 38 153 114 191 191 27 56 29 68 29 175 0 107 -2 119 -29 175
-38 77 -114 153 -191 190 -52 26 -72 30 -160 32 -64 2 -115 -2 -142 -11z m205
-111 c144 -61 165 -252 35 -327 -30 -17 -30 -17 -62 16 l-32 33 46 60 c25 34
45 64 45 67 0 3 -24 -10 -54 -30 -30 -20 -60 -33 -65 -29 -6 3 -11 30 -11 60
0 54 -14 81 -24 48 -3 -10 -21 -90 -41 -178 -20 -88 -44 -177 -55 -197 -28
-55 -44 -78 -52 -78 -5 0 -8 92 -8 205 0 219 6 252 53 304 52 56 151 76 225
46z"/>
</g>
</svg>
