<?xml version="1.0" encoding="UTF-8"?>
<svg width="26px" height="26px" viewBox="0 0 26 26" version="1.1" xmlns="http://www.w3.org/2000/svg" xmlns:xlink="http://www.w3.org/1999/xlink">
    <!-- Generator: sketchtool 64 (101010) - https://sketch.com -->
    <title>091D6DAD-458F-4243-BD80-61AA329987F6</title>
    <desc>Created with sketchtool.</desc>
    <g id="DESIGN" stroke="none" stroke-width="1" fill="none" fill-rule="evenodd" opacity="0.699999988">
        <g id="03---Navigation-Drawer" transform="translate(-26.000000, -275.000000)" fill="#FEFEFE" fill-rule="nonzero">
            <g id="Group-Copy-6" transform="translate(0.000000, 264.000000)">
                <g id="Icon" transform="translate(24.000000, 9.000000)">
                    <path d="M15,2 C22.1684875,2 28,7.83151248 28,15 C28,22.1684875 22.1684875,28 15,28 C7.83151248,28 2,22.1684875 2,15 C2,7.83151248 7.83151248,2 15,2 Z M15.4,11 L14,11 C13.4477153,11 13,11.4477153 13,12 C13,12.5522847 13.4477153,13 14,13 L14,13 L14.4231224,13 L14.4231224,20 L13,20 C12.4477153,20 12,20.4477153 12,21 C12,21.5522847 12.4477153,22 13,22 L13,22 L17.82,22 C18.3722847,22 18.82,21.5522847 18.82,21 C18.82,20.4477153 18.3722847,20 17.82,20 L17.82,20 L16.4,20 L16.4,12 C16.4,11.4477153 15.9522847,11 15.4,11 L15.4,11 Z M15.2,8 C14.6477153,8 14.2,8.44771525 14.2,9 C14.2,9.55228475 14.6477153,10 15.2,10 C15.7522847,10 16.2,9.55228475 16.2,9 C16.2,8.44771525 15.7522847,8 15.2,8 Z" id="Combined-Shape"></path>
                </g>
            </g>
        </g>
    </g>
</svg>