<?xml version="1.0" encoding="UTF-8"?>
<svg width="20px" height="15px" viewBox="0 0 20 15" version="1.1" xmlns="http://www.w3.org/2000/svg" xmlns:xlink="http://www.w3.org/1999/xlink">
    <!-- Generator: sketchtool 64 (101010) - https://sketch.com -->
    <title>78307493-27D2-4727-BD9E-7BDC26F11D2F</title>
    <desc>Created with sketchtool.</desc>
    <g id="DESIGN" stroke="none" stroke-width="1" fill="none" fill-rule="evenodd" opacity="0.699999988">
        <g id="03---Navigation-Drawer" transform="translate(-29.000000, -393.000000)" fill="#FEFEFE" fill-rule="nonzero">
            <g id="Group-Copy" transform="translate(0.000000, 376.000000)">
                <path d="M31.809682,19.3730422 C32.4646417,19.3730422 32.9962031,18.8414808 32.9962031,18.1865211 C32.9962031,17.5315615 32.4646417,17 31.809682,17 L30.1865211,17 C29.5315615,17 29,17.5315615 29,18.1865211 C29,18.8414808 29.5315615,19.3730422 30.1865211,19.3730422 L31.809682,19.3730422 Z M47.9653536,19.2116754 C48.5443759,19.2116754 49,18.7655434 49,18.1865211 C49,17.616991 48.5443759,17.1613669 47.9653536,17.1613669 L36.0147129,17.1613669 C35.4356906,17.1613669 34.9895586,17.6074988 34.9895586,18.1865211 C34.9895586,18.7655434 35.4356906,19.2116754 36.0147129,19.2116754 L47.9653536,19.2116754 Z M31.809682,25.2866635 C32.4646417,25.2866635 32.9962031,24.755102 32.9962031,24.1001424 C32.9962031,23.4451827 32.4646417,22.9136213 31.809682,22.9136213 L30.1865211,22.9136213 C29.5315615,22.9136213 29,23.4451827 29,24.1001424 C29,24.755102 29.5315615,25.2866635 30.1865211,25.2866635 L31.809682,25.2866635 Z M47.9653536,25.1252966 C48.5443759,25.1252966 49,24.6791647 49,24.1001424 C49,23.5306122 48.5443759,23.0749881 47.9653536,23.0749881 L36.0147129,23.0749881 C35.4356906,23.0749881 34.9895586,23.5211201 34.9895586,24.1001424 C34.9895586,24.6791647 35.4356906,25.1252966 36.0147129,25.1252966 L47.9653536,25.1252966 Z M31.809682,31.2002848 C32.4646417,31.2002848 32.9962031,30.6687233 32.9962031,30.0137636 C32.9962031,29.358804 32.4646417,28.8272425 31.809682,28.8272425 L30.1865211,28.8272425 C29.5315615,28.8272425 29,29.358804 29,30.0137636 C29,30.6687233 29.5315615,31.2002848 30.1865211,31.2002848 L31.809682,31.2002848 Z M47.9653536,31.0389179 C48.5443759,31.0389179 49,30.592786 49,30.0137636 C49,29.4442335 48.5443759,28.9886094 47.9653536,28.9886094 L36.0147129,28.9886094 C35.4356906,28.9886094 34.9895586,29.4347413 34.9895586,30.0137636 C34.9895586,30.592786 35.4356906,31.0389179 36.0147129,31.0389179 L47.9653536,31.0389179 Z" id="icon"></path>
            </g>
        </g>
    </g>
</svg>