<?xml version="1.0" encoding="UTF-8"?>
<svg width="14px" height="24px" viewBox="0 0 14 24" version="1.1" xmlns="http://www.w3.org/2000/svg" xmlns:xlink="http://www.w3.org/1999/xlink">
    <!-- Generator: sketchtool 64 (101010) - https://sketch.com -->
    <title>38004FC9-E490-4BE3-9448-3E8504F5697E</title>
    <desc>Created with sketchtool.</desc>
    <g id="DESIGN" stroke="none" stroke-width="1" fill="none" fill-rule="evenodd" opacity="0.699999988">
        <g id="03---Navigation-Drawer" transform="translate(-32.000000, -500.000000)" fill="#FEFEFE" fill-rule="nonzero">
            <g id="Group-Copy-3" transform="translate(0.000000, 488.000000)">
                <g id="Group-4" transform="translate(24.000000, 9.000000)">
                    <path d="M21.7218475,12.363142 C21.5883484,12.1373729 21.3318634,11.9967479 21.0531616,11.9967479 L18.2893524,11.9967479 L19.5463867,3.8140894 C19.6013336,3.49658453 19.4158631,3.18512217 19.0960998,3.05768078 C18.776535,2.93023939 18.4034119,3.01922861 18.1907654,3.2739283 L8.1582947,16.2156806 C7.98115538,16.4278998 7.95021056,16.714643 8.07815549,16.9552435 C8.20629883,17.195661 8.47151183,17.3480047 8.76171875,17.3480047 L13.1195831,17.3480047 L10.1962891,26.1080933 C10.0951233,26.4429932 10.2744446,26.7960206 10.6180115,26.9382935 C10.7189789,26.9800415 10.8249054,27 10.9296417,27 C11.181961,27 11.4263458,26.8839112 11.5705566,26.6773682 L21.6938781,13.080366 C21.844635,12.8641185 21.8553467,12.588911 21.7218475,12.363142 Z" id="Icon"></path>
                </g>
            </g>
        </g>
    </g>
</svg>