<?xml version="1.0" encoding="UTF-8"?>
<svg width="24px" height="19px" viewBox="0 0 24 19" version="1.1" xmlns="http://www.w3.org/2000/svg" xmlns:xlink="http://www.w3.org/1999/xlink">
    <!-- Generator: sketchtool 64 (101010) - https://sketch.com -->
    <title>5D3C28AA-DC62-4313-8643-BBC735FCC61D</title>
    <desc>Created with sketchtool.</desc>
    <g id="DESIGN" stroke="none" stroke-width="1" fill="none" fill-rule="evenodd">
        <g id="03---Navigation-Drawer" transform="translate(-27.000000, -334.000000)">
            <g id="Group" transform="translate(0.000000, 320.000000)">
                <g id="Icon" transform="translate(24.000000, 9.000000)">
                    <rect x="0" y="0" width="30" height="30"></rect>
                    <path d="M26.1430678,10.1190911 L26.1430678,9.14789968 C26.1430678,7.02206949 25.0423841,5.93217685 22.8841809,5.93217685 L6.85952181,5.93217685 C4.69052755,5.93217685 3.60063491,7.01127847 3.60063491,9.14789968 L3.60063491,10.1190911 L26.1430678,10.1190911 Z M22.8841809,23.2193848 C25.0423841,23.2193848 26.1430678,22.1402832 26.1430678,20.003662 L26.1430678,12.4607417 L3.60063491,12.4607417 L3.60063491,20.003662 C3.60063491,22.1402832 4.69052755,23.2193848 6.85952181,23.2193848 L22.8841809,23.2193848 Z M10.5392583,18.5252928 L8.03574257,18.5252928 C7.43144567,18.5252928 7.03217807,18.1152342 7.03217807,17.5433103 L7.03217807,15.6548825 C7.03217807,15.0829586 7.43144567,14.6729 8.03574257,14.6729 L10.5392583,14.6729 C11.1327642,14.6729 11.5428228,15.0829586 11.5428228,15.6548825 L11.5428228,17.5433103 C11.5428228,18.1152342 11.1327642,18.5252928 10.5392583,18.5252928 Z" id="Credit-card" fill="#BBCADE" fill-rule="nonzero"></path>
                </g>
            </g>
        </g>
    </g>
</svg>