<?xml version="1.0" encoding="UTF-8"?>
<svg width="28px" height="26px" viewBox="0 0 28 26" version="1.1" xmlns="http://www.w3.org/2000/svg" xmlns:xlink="http://www.w3.org/1999/xlink">
    <!-- Generator: sketchtool 64 (101010) - https://sketch.com -->
    <title>1D9D5591-ED91-4203-B8BC-3C682008FB90</title>
    <desc>Created with sketchtool.</desc>
    <g id="DESIGN" stroke="none" stroke-width="1" fill="none" fill-rule="evenodd" opacity="0.699999988">
        <g id="03---Navigation-Drawer" transform="translate(-25.000000, -443.000000)" fill="#FEFEFE" fill-rule="nonzero">
            <g id="Group-Copy-2" transform="translate(0.000000, 432.000000)">
                <g id="wivityLanguage" transform="translate(25.000000, 11.000000)">
                    <path d="M25.25,10.0645097 C26.4926407,10.0645097 27.5,11.0658507 27.5,12.3010674 L27.5,12.3010674 L27.5,21.2472982 C27.5,22.4825149 26.4926407,23.4838559 25.25,23.4838559 L25.25,23.4838559 L24.125,23.4838559 C23.5036797,23.4838559 23,23.9845264 23,24.6021348 L23,24.6021348 L23,25.1612742 C23,25.6244805 22.6222403,25.9999918 22.15625,25.9999918 C21.9735549,26.000802 21.7956619,25.9418586 21.65,25.8322415 L21.65,25.8322415 L19.09625,23.9311675 C18.7067836,23.6408128 18.233083,23.4838559 17.74625,23.4838559 L17.74625,23.4838559 L12.875,23.4838559 C11.6323593,23.4838559 10.625,22.4825149 10.625,21.2472982 L10.625,21.2472982 L10.625,12.3010674 C10.625,11.0658507 11.6323593,10.0645097 12.875,10.0645097 L12.875,10.0645097 Z M19.99625,12.5694543 L18.28625,12.5694543 L18.28625,14.2692382 L14.855,14.2692382 L14.855,16.024936 L16.73375,16.024936 C16.9916532,16.8475392 17.4166737,17.6087668 17.9825,18.2614937 C17.3587658,18.8451091 16.576439,19.2339356 15.7325,19.3797725 L15.7325,19.3797725 L15.7325,21.0236424 C17.0276922,20.8602548 18.233135,20.2788133 19.16375,19.3685897 C20.0967667,20.2754247 21.3009994,20.8562825 22.595,21.0236424 L22.595,21.0236424 L22.595,19.3238586 C21.7533032,19.1712946 20.9728028,18.7833759 20.345,18.2055797 C20.9148853,17.5556751 21.3404035,16.7935562 21.59375,15.969022 L21.59375,15.969022 L23.4275,15.969022 L23.4275,14.2692382 L19.99625,14.2692382 L19.99625,12.5694543 Z M19.77125,15.969022 C19.6016879,16.327906 19.3902343,16.665712 19.14125,16.975473 C18.8922657,16.665712 18.6808121,16.327906 18.51125,15.969022 L19.77125,15.969022 Z M15.125,3.02868841e-13 C16.3676407,3.02868841e-13 17.375,1.00134099 17.375,2.23655771 L17.375,8.78967179 L12.875,8.78967179 C12.7252226,8.77818524 12.5747774,8.77818524 12.425,8.78967179 L9.75110997,3.33566218 C9.47923602,2.78111314 8.80928782,2.5519597 8.25473878,2.82383365 C8.03189891,2.93308342 7.8517325,3.11335762 7.74261603,3.33626278 L5.05764287,8.82117575 C4.88105026,9.1819224 5.03033661,9.61752194 5.39108327,9.79411455 C5.43688056,9.81653323 5.48490862,9.83407329 5.534375,9.8464453 C6.04197736,9.97340157 6.56889664,9.72607016 6.79553958,9.25446541 L7.25,8.30881188 L10.4675,8.30881188 L10.92875,9.38235958 C9.94613435,10.0325727 9.35518269,11.1276935 9.35375,12.3010674 L9.35375,13.6094536 C9.19426984,13.6776441 9.04326518,13.7639531 8.90375,13.8666578 L6.35,15.7677318 C5.98775695,16.0092888 5.5,15.9365627 5.225,15.59999 C5.09440434,15.4627004 5.01500564,15.2851206 5,15.0967645 L5,14.5376251 C5,13.9200167 4.49632034,13.4193462 3.875,13.4193462 L2.75,13.4193462 C1.50735931,13.4193462 0.5,12.4180052 0.5,11.1827885 L0.5,2.23655771 C0.5,1.00134099 1.50735931,3.02868841e-13 2.75,3.02868841e-13 L15.125,3.02868841e-13 Z M8.85875,5.09935157 L9.6125,6.59784524 L8.105,6.59784524 L8.85875,5.09935157 Z" id="Combined-Shape"></path>
                </g>
            </g>
        </g>
    </g>
</svg>