<?xml version="1.0" encoding="UTF-8"?>
<svg width="20px" height="24px" viewBox="0 0 20 24" version="1.1" xmlns="http://www.w3.org/2000/svg" xmlns:xlink="http://www.w3.org/1999/xlink">
    <!-- Generator: sketchtool 64 (101010) - https://sketch.com -->
    <title>3EC78422-0A7C-4470-A7C8-3873968CBA87</title>
    <desc>Created with sketchtool.</desc>
    <g id="DESIGN" stroke="none" stroke-width="1" fill="none" fill-rule="evenodd" opacity="0.699999988">
        <g id="03---Navigation-Drawer" transform="translate(-29.000000, -556.000000)" fill="#FEFEFE" fill-rule="nonzero">
            <g id="Group-Copy-4" transform="translate(0.000000, 544.000000)">
                <g id="Icons" transform="translate(24.000000, 9.000000)">
                    <path d="M21.0563892,27 C23.1641737,27 24.242018,25.8982036 24.242018,23.7904192 L24.242018,12.9161677 L16.2300419,12.9161677 C14.9845329,12.9161677 14.3857305,12.3053892 14.3857305,11.0598802 L14.3857305,3 L8.93662874,3 C6.85279641,3 5.751,4.08982036 5.751,6.20958084 L5.751,23.7904192 C5.751,25.9101796 6.82884431,27 8.93662874,27 L21.0563892,27 Z M24.0863293,11.7305389 C24.0384251,11.4071856 23.7749521,11.0958084 23.4276467,10.7365269 L16.5533952,3.81437126 C16.2060898,3.46706587 15.8827365,3.21556886 15.5593832,3.15568862 L15.5593832,10.988024 C15.5593832,11.491018 15.7989042,11.7305389 16.3138743,11.7305389 L24.0863293,11.7305389 Z M19.3438144,17.7664671 L10.6492036,17.7664671 C10.3018982,17.7664671 10.0384251,17.5149701 10.0384251,17.1796407 C10.0384251,16.8443114 10.3018982,16.5928144 10.6492036,16.5928144 L19.3438144,16.5928144 C19.6911198,16.5928144 19.9545928,16.8443114 19.9545928,17.1796407 C19.9545928,17.5149701 19.6911198,17.7664671 19.3438144,17.7664671 Z M19.3438144,21.9820359 L10.6492036,21.9820359 C10.3018982,21.9820359 10.0384251,21.7185629 10.0384251,21.3832335 C10.0384251,21.0479042 10.3018982,20.7964072 10.6492036,20.7964072 L19.3438144,20.7964072 C19.6911198,20.7964072 19.9545928,21.0479042 19.9545928,21.3832335 C19.9545928,21.7185629 19.6911198,21.9820359 19.3438144,21.9820359 Z" id="Icon"></path>
                </g>
            </g>
        </g>
    </g>
</svg>