<?xml version="1.0" encoding="UTF-8"?>
<svg width="20px" height="22px" viewBox="0 0 20 22" version="1.1" xmlns="http://www.w3.org/2000/svg" xmlns:xlink="http://www.w3.org/1999/xlink">
    <!-- Generator: sketchtool 64 (101010) - https://sketch.com -->
    <title>D204FE31-85FB-46AE-A082-389065609F88</title>
    <desc>Created with sketchtool.</desc>
    <g id="DESIGN" stroke="none" stroke-width="1" fill="none" fill-rule="evenodd">
        <g id="03---Navigation-Drawer" transform="translate(-29.000000, -333.000000)">
            <g id="Group-Copy-7" transform="translate(0.000000, 320.000000)">
                <g id="Icon" transform="translate(24.000000, 9.000000)">
                    <rect x="0" y="0" width="30" height="30"></rect>
                    <path d="M23.2994015,21.4199219 C24.2876828,21.4199219 24.8785031,20.9042969 24.8785031,20.1201172 C24.8785031,19.0888672 23.8687374,18.1650391 22.9771359,17.2734375 C22.2896359,16.5751953 22.1177609,15.125 22.0210812,13.9003906 C21.9136593,10.0546875 20.8609249,7.390625 18.1861203,6.42382812 C17.7886593,5.09179688 16.7144406,4.04980469 15.2212765,4.04980469 C13.7173703,4.04980469 12.6538937,5.09179688 12.2564328,6.42382812 C9.58162806,7.390625 8.52889369,10.0546875 8.42147181,13.9003906 C8.32479213,15.125 8.15291713,16.5751953 7.46541713,17.2734375 L7.14725334,17.589581 C6.34782075,18.3838972 5.55330775,19.2101907 5.55330775,20.1201172 C5.55330775,20.9042969 6.15487025,21.4199219 7.1431515,21.4199219 L23.2994015,21.4199219 Z M15.2212765,25.5234375 C16.9722531,25.5234375 18.2505734,24.2558594 18.3794796,22.8164062 L12.0630734,22.8164062 C12.1919796,24.2558594 13.4702999,25.5234375 15.2212765,25.5234375 Z" id="Bell" fill="#FEFEFE" fill-rule="nonzero" opacity="0.699999988"></path>
                </g>
            </g>
        </g>
    </g>
</svg>